<svg xmlns="http://www.w3.org/2000/svg" viewBox="0 0 16 16" width="16" height="16">
  <rect x="1" y="1" width="14" height="14" rx="3.2" fill="#2b6cb0"/>
  <path fill="#ffffff" d="M6.0 4.6c-1.5 .55-2.5 1.75-2.5 3.4 0 1.45 .9 2.45 2.1 2.45 1.0 0 1.75-.7 1.75-1.65 0-.9-.66-1.55-1.45-1.55-.18 0-.32 .02-.46 .07 .14-.8 .85-1.45 1.65-1.78L6.0 4.6zM11.4 4.6c-1.5 .55-2.5 1.75-2.5 3.4 0 1.45 .9 2.45 2.1 2.45 1.0 0 1.75-.7 1.75-1.65 0-.9-.66-1.55-1.45-1.55-.18 0-.32 .02-.46 .07 .14-.8 .85-1.45 1.65-1.78L11.4 4.6z"/>
</svg>
